<svg xmlns="http://www.w3.org/2000/svg" xmlns:xlink="http://www.w3.org/1999/xlink" width="140" zoomAndPan="magnify" viewBox="0 0 104.88 50.999998" height="68" preserveAspectRatio="xMidYMid meet" version="1.0"><defs><clipPath id="9163b9b7ff"><path d="M 29.398438 0.921875 L 75.847656 0.921875 L 75.847656 50.367188 L 29.398438 50.367188 Z M 29.398438 0.921875 " clip-rule="nonzero"/></clipPath></defs><g clip-path="url(#9163b9b7ff)"><path fill="#ff5a5f" d="M 75 36.066406 L 74.25 34.285156 L 73.109375 31.757812 L 73.058594 31.710938 C 69.589844 24.164062 65.9375 16.707031 62.105469 9.339844 L 61.953125 9.042969 L 60.773438 6.667969 C 60.28125 5.695312 59.6875 4.789062 58.988281 3.949219 C 58.21875 2.984375 57.28125 2.234375 56.164062 1.707031 C 55.050781 1.175781 53.878906 0.914062 52.644531 0.921875 C 51.417969 0.929688 50.25 1.1875 49.140625 1.707031 C 48.03125 2.226562 47.082031 2.953125 46.292969 3.890625 C 45.613281 4.738281 45.015625 5.648438 44.507812 6.609375 L 43.164062 9.234375 C 39.328125 16.660156 35.625 24.175781 32.199219 31.601562 L 32.152344 31.699219 C 31.855469 32.511719 31.460938 33.34375 31.058594 34.234375 C 30.808594 34.777344 30.558594 35.371094 30.308594 36.015625 C 29.667969 37.75 29.46875 39.527344 29.714844 41.359375 C 29.847656 42.261719 30.097656 43.136719 30.457031 43.976562 C 30.820312 44.816406 31.28125 45.597656 31.847656 46.316406 C 32.414062 47.039062 33.0625 47.671875 33.792969 48.226562 C 34.523438 48.777344 35.3125 49.226562 36.164062 49.570312 C 37.449219 50.109375 38.789062 50.375 40.183594 50.367188 C 40.613281 50.359375 41.039062 50.328125 41.46875 50.269531 C 43.234375 50.042969 44.886719 49.484375 46.425781 48.585938 C 48.753906 47.199219 50.804688 45.484375 52.578125 43.4375 C 54.359375 45.472656 56.40625 47.1875 58.726562 48.585938 C 60.265625 49.484375 61.917969 50.046875 63.6875 50.269531 C 64.113281 50.328125 64.542969 50.359375 64.972656 50.367188 C 66.351562 50.378906 67.71875 50.109375 68.992188 49.570312 C 69.839844 49.226562 70.628906 48.777344 71.359375 48.226562 C 72.09375 47.671875 72.742188 47.039062 73.304688 46.316406 C 73.871094 45.597656 74.335938 44.816406 74.695312 43.976562 C 75.058594 43.136719 75.304688 42.261719 75.4375 41.359375 C 75.8125 39.550781 75.660156 37.785156 74.988281 36.066406 Z M 52.644531 38.640625 C 49.96875 35.269531 48.230469 32.113281 47.636719 29.429688 C 47.390625 28.445312 47.339844 27.421875 47.480469 26.414062 C 47.582031 25.671875 47.855469 24.957031 48.277344 24.328125 C 48.78125 23.628906 49.417969 23.089844 50.191406 22.703125 C 50.964844 22.316406 51.78125 22.132812 52.644531 22.148438 C 54.375 22.082031 56.019531 22.898438 57.007812 24.320312 C 57.441406 24.949219 57.707031 25.640625 57.804688 26.398438 C 57.949219 27.414062 57.898438 28.417969 57.652344 29.414062 C 57.054688 32.035156 55.328125 35.15625 52.644531 38.621094 Z M 72.433594 40.957031 C 72.046875 43.535156 70.34375 45.722656 67.914062 46.703125 C 66.710938 47.210938 65.457031 47.390625 64.15625 47.246094 C 62.808594 47.082031 61.550781 46.652344 60.386719 45.964844 C 58.242188 44.671875 56.359375 43.078125 54.734375 41.179688 C 58.003906 37.167969 60 33.519531 60.738281 30.238281 C 61.066406 28.847656 61.148438 27.441406 60.988281 26.023438 C 60.804688 24.8125 60.34375 23.660156 59.644531 22.65625 C 58.050781 20.382812 55.425781 19.050781 52.644531 19.101562 C 49.878906 19.066406 47.269531 20.378906 45.648438 22.617188 C 44.949219 23.621094 44.492188 24.773438 44.304688 25.984375 C 44.09375 27.40625 44.175781 28.8125 44.554688 30.199219 C 45.304688 33.460938 47.335938 37.175781 50.5625 41.1875 C 48.949219 43.101562 47.0625 44.695312 44.910156 45.972656 C 43.742188 46.675781 42.484375 47.117188 41.132812 47.292969 C 39.832031 47.4375 38.578125 47.273438 37.359375 46.796875 C 34.941406 45.824219 33.222656 43.640625 32.839844 41.0625 C 32.683594 39.75 32.832031 38.472656 33.292969 37.230469 C 33.445312 36.734375 33.6875 36.273438 33.933594 35.652344 C 34.28125 34.859375 34.683594 34.015625 35.078125 33.179688 L 35.125 33.085938 C 38.550781 25.714844 42.214844 18.191406 46.042969 10.855469 L 46.183594 10.503906 L 47.375 8.222656 C 47.761719 7.4375 48.238281 6.703125 48.804688 6.03125 C 49.046875 5.746094 49.320312 5.488281 49.621094 5.261719 C 49.921875 5.035156 50.242188 4.839844 50.585938 4.683594 C 50.929688 4.523438 51.285156 4.40625 51.652344 4.324219 C 52.019531 4.246094 52.394531 4.203125 52.769531 4.203125 C 53.148438 4.203125 53.519531 4.246094 53.890625 4.324219 C 54.257812 4.40625 54.613281 4.523438 54.957031 4.683594 C 55.296875 4.839844 55.621094 5.035156 55.917969 5.261719 C 56.21875 5.488281 56.492188 5.746094 56.738281 6.03125 C 57.277344 6.703125 57.726562 7.425781 58.089844 8.203125 L 59.277344 10.484375 L 59.421875 10.78125 C 63.195312 18.160156 66.878906 25.675781 70.292969 33.054688 L 70.292969 33.105469 C 70.6875 33.898438 71.042969 34.789062 71.433594 35.578125 C 71.683594 36.171875 71.933594 36.667969 72.078125 37.15625 C 72.496094 38.40625 72.609375 39.679688 72.421875 40.984375 Z M 72.433594 40.957031 " fill-opacity="1" fill-rule="evenodd"/></g></svg>