<svg xmlns="http://www.w3.org/2000/svg" xmlns:xlink="http://www.w3.org/1999/xlink" width="276" zoomAndPan="magnify" viewBox="0 0 206.87999 44.999999" height="60" preserveAspectRatio="xMidYMid meet" version="1.0"><defs><g/><clipPath id="a843379d20"><path d="M 135 0.0117188 L 178 0.0117188 L 178 43 L 135 43 Z M 135 0.0117188 " clip-rule="nonzero"/></clipPath><clipPath id="df3a6aa66d"><path d="M 181 1 L 206.761719 1 L 206.761719 42 L 181 42 Z M 181 1 " clip-rule="nonzero"/></clipPath></defs><g fill="#545454" fill-opacity="1"><g transform="translate(-4.632735, 41.843036)"><g><path d="M 38.046875 0 L 32.59375 0 L 32.59375 -17.8125 L 11.296875 -17.8125 L 11.296875 0 L 5.84375 0 L 5.84375 -40.640625 L 11.296875 -40.640625 L 11.296875 -23.046875 L 32.59375 -23.046875 L 32.59375 -40.640625 L 38.046875 -40.640625 Z M 38.046875 0 "/></g></g></g><g fill="#545454" fill-opacity="1"><g transform="translate(33.977299, 41.843036)"><g><path d="M 11.296875 -40.640625 L 11.296875 0 L 5.84375 0 L 5.84375 -40.640625 Z M 11.296875 -40.640625 "/></g></g></g><g fill="#545454" fill-opacity="1"><g transform="translate(45.83503, 41.843036)"><g><path d="M 11.296875 -40.640625 L 11.296875 -5.28125 L 31.984375 -5.28125 L 31.984375 0 L 5.84375 0 L 5.84375 -40.640625 Z M 11.296875 -40.640625 "/></g></g></g><g fill="#545454" fill-opacity="1"><g transform="translate(75.508898, 41.843036)"><g><path d="M 11.296875 -40.640625 L 11.296875 -5.28125 L 31.984375 -5.28125 L 31.984375 0 L 5.84375 0 L 5.84375 -40.640625 Z M 11.296875 -40.640625 "/></g></g></g><g fill="#545454" fill-opacity="1"><g transform="translate(105.182766, 41.843036)"><g><path d="M 29.84375 -40.640625 L 29.84375 -35.40625 L 18.9375 -35.40625 L 18.9375 0 L 13.484375 0 L 13.484375 -35.40625 L 2.859375 -35.40625 L 2.859375 -40.640625 Z M 29.84375 -40.640625 "/></g></g></g><g clip-path="url(#a843379d20)"><g fill="#545454" fill-opacity="1"><g transform="translate(132.60853, 41.843036)"><g><path d="M 3.3125 -20.296875 C 3.3125 -24.003906 4.25 -27.445312 6.125 -30.625 C 8 -33.8125 10.519531 -36.347656 13.6875 -38.234375 C 16.851562 -40.128906 20.3125 -41.078125 24.0625 -41.078125 C 27.769531 -41.078125 31.210938 -40.128906 34.390625 -38.234375 C 37.578125 -36.347656 40.113281 -33.8125 42 -30.625 C 43.894531 -27.445312 44.84375 -24.003906 44.84375 -20.296875 C 44.84375 -16.546875 43.90625 -13.078125 42.03125 -9.890625 C 40.164062 -6.703125 37.628906 -4.179688 34.421875 -2.328125 C 31.222656 -0.472656 27.769531 0.453125 24.0625 0.453125 C 20.3125 0.453125 16.84375 -0.460938 13.65625 -2.296875 C 10.46875 -4.140625 7.945312 -6.644531 6.09375 -9.8125 C 4.238281 -12.976562 3.3125 -16.472656 3.3125 -20.296875 Z M 8.9375 -20.234375 C 8.9375 -17.460938 9.609375 -14.894531 10.953125 -12.53125 C 12.304688 -10.175781 14.15625 -8.300781 16.5 -6.90625 C 18.84375 -5.519531 21.398438 -4.828125 24.171875 -4.828125 C 26.941406 -4.828125 29.476562 -5.507812 31.78125 -6.875 C 34.082031 -8.25 35.898438 -10.125 37.234375 -12.5 C 38.566406 -14.882812 39.234375 -17.484375 39.234375 -20.296875 C 39.234375 -23.097656 38.554688 -25.695312 37.203125 -28.09375 C 35.859375 -30.5 34.023438 -32.394531 31.703125 -33.78125 C 29.378906 -35.164062 26.832031 -35.859375 24.0625 -35.859375 C 21.28125 -35.859375 18.726562 -35.15625 16.40625 -33.75 C 14.082031 -32.34375 12.253906 -30.441406 10.921875 -28.046875 C 9.597656 -25.648438 8.9375 -23.046875 8.9375 -20.234375 Z M 8.9375 -20.234375 "/></g></g></g></g><g clip-path="url(#df3a6aa66d)"><g fill="#545454" fill-opacity="1"><g transform="translate(175.489936, 41.843036)"><g><path d="M 16.75 -40.640625 C 21.164062 -40.640625 24.617188 -39.53125 27.109375 -37.3125 C 29.609375 -35.101562 30.859375 -32.015625 30.859375 -28.046875 C 30.859375 -25.753906 30.398438 -23.613281 29.484375 -21.625 C 28.566406 -19.644531 27.082031 -18.035156 25.03125 -16.796875 C 22.988281 -15.566406 20.414062 -14.953125 17.3125 -14.953125 L 11.296875 -14.953125 L 11.296875 0 L 5.84375 0 L 5.84375 -40.640625 Z M 17.3125 -20.234375 C 19.257812 -20.234375 20.84375 -20.644531 22.0625 -21.46875 C 23.28125 -22.289062 24.148438 -23.289062 24.671875 -24.46875 C 25.191406 -25.65625 25.453125 -26.8125 25.453125 -27.9375 C 25.453125 -29.882812 24.816406 -31.613281 23.546875 -33.125 C 22.273438 -34.644531 20.289062 -35.40625 17.59375 -35.40625 L 11.296875 -35.40625 L 11.296875 -20.234375 Z M 17.3125 -20.234375 "/></g></g></g></g></svg>